<?xml version="1.0" standalone="no"?>
<!DOCTYPE svg PUBLIC "-//W3C//DTD SVG 20010904//EN"
 "http://www.w3.org/TR/2001/REC-SVG-20010904/DTD/svg10.dtd">
<svg version="1.0" xmlns="http://www.w3.org/2000/svg"
 width="691.000000pt" height="361.000000pt" viewBox="0 0 691.000000 361.000000"
 preserveAspectRatio="xMidYMid meet">

<g transform="translate(0.000000,361.000000) scale(0.100000,-0.100000)"
fill="#000000" stroke="none">
<path d="M90 1046 c0 -2 14 -6 30 -8 17 -3 30 -1 30 4 0 4 -13 8 -30 8 -16 0
-30 -2 -30 -4z"/>
<path d="M185 1043 c34 -5 59 -23 31 -23 -9 0 -14 -4 -11 -10 3 -5 15 -10 26
-10 14 0 19 7 19 25 0 23 -3 25 -47 24 -34 -2 -39 -3 -18 -6z"/>
<path d="M278 1040 c12 -5 22 -17 22 -26 0 -10 3 -15 6 -11 13 13 -8 47 -29
46 l-22 0 23 -9z"/>
<path d="M585 1039 c-11 -16 -1 -19 13 -3 7 8 8 14 3 14 -5 0 -13 -5 -16 -11z"/>
<path d="M645 1044 c48 -8 115 -9 115 -2 0 5 -30 7 -67 7 -38 -1 -59 -3 -48
-5z"/>
<path d="M770 1039 c0 -5 5 -7 10 -4 7 4 10 -115 10 -349 0 -201 -4 -356 -9
-358 -5 -1 -3 -9 5 -16 12 -11 14 41 14 363 0 327 -2 375 -15 375 -8 0 -15 -5
-15 -11z"/>
<path d="M2140 1009 l0 -40 48 3 c47 3 47 3 50 41 l3 37 -50 0 -51 0 0 -41z
m60 23 c0 -4 -6 -14 -12 -21 -11 -10 -10 -11 5 -6 9 4 17 14 17 22 0 8 5 11
10 8 6 -3 10 -17 10 -31 0 -21 -4 -24 -40 -24 -38 0 -40 2 -40 30 0 25 4 30
25 30 14 0 25 -4 25 -8z"/>
<path d="M3432 938 l2 -113 3 97 c3 83 7 99 22 108 15 8 20 6 24 -10 3 -13 11
-18 20 -14 21 8 25 -14 16 -81 -5 -33 -8 -127 -7 -210 0 -82 -1 -184 -4 -225
-3 -46 -3 -59 2 -35 5 29 7 11 8 -63 0 -57 3 -106 6 -109 4 -4 6 148 5 336 0
320 1 344 18 357 14 11 15 13 3 14 -8 0 -20 11 -27 25 l-11 25 58 0 c47 0 59
-3 63 -17 4 -14 5 -12 6 5 1 21 -1 22 -104 22 l-105 0 2 -112z"/>
<path d="M3936 1041 c-4 -7 -5 -15 -2 -18 9 -9 19 4 14 18 -4 11 -6 11 -12 0z"/>
<path d="M3982 1045 c3 -3 33 -6 67 -6 33 -1 61 -5 61 -11 0 -5 4 -7 9 -4 5 3
9 0 8 -7 -1 -38 3 -51 14 -40 7 7 8 24 4 42 l-7 31 -80 0 c-45 0 -79 -2 -76
-5z"/>
<path d="M5550 1009 l0 -40 48 3 c47 3 47 3 50 41 l3 37 -50 0 -51 0 0 -41z
m59 11 c18 9 21 8 21 -12 0 -19 -6 -23 -35 -25 -33 -1 -35 0 -35 30 1 29 2 31
14 14 12 -15 18 -16 35 -7z"/>
<path d="M635 1019 c-9 -14 -2 -20 14 -10 8 6 9 11 3 15 -6 3 -14 1 -17 -5z"/>
<path d="M3600 1020 c0 -5 5 -10 11 -10 5 0 7 5 4 10 -3 6 -8 10 -11 10 -2 0
-4 -4 -4 -10z"/>
<path d="M3980 1020 c0 -5 5 -10 11 -10 5 0 7 5 4 10 -3 6 -8 10 -11 10 -2 0
-4 -4 -4 -10z"/>
<path d="M140 1009 c0 -5 5 -7 10 -4 6 3 10 8 10 11 0 2 -4 4 -10 4 -5 0 -10
-5 -10 -11z"/>
<path d="M261 1004 c0 -11 3 -14 6 -6 3 7 2 16 -1 19 -3 4 -6 -2 -5 -13z"/>
<path d="M680 1001 c0 -11 5 -23 10 -26 6 -4 10 5 10 19 0 14 -4 26 -10 26 -5
0 -10 -9 -10 -19z"/>
<path d="M3568 1013 c7 -3 16 -2 19 1 4 3 -2 6 -13 5 -11 0 -14 -3 -6 -6z"/>
<path d="M583 1003 c-18 -7 -16 -30 2 -30 8 0 12 4 9 8 -2 4 0 10 6 14 5 3 10
-1 10 -10 0 -9 4 -14 10 -10 5 3 7 12 3 20 -5 15 -18 18 -40 8z"/>
<path d="M752 990 c0 -14 2 -19 5 -12 2 6 2 18 0 25 -3 6 -5 1 -5 -13z"/>
<path d="M91 984 c0 -11 3 -14 6 -6 3 7 2 16 -1 19 -3 4 -6 -2 -5 -13z"/>
<path d="M771 984 c0 -11 3 -14 6 -6 3 7 2 16 -1 19 -3 4 -6 -2 -5 -13z"/>
<path d="M3915 963 c-4 -21 -9 -47 -12 -58 -3 -13 -2 -17 5 -10 9 10 25 105
17 105 -2 0 -7 -17 -10 -37z"/>
<path d="M143 940 c0 -30 2 -43 4 -27 2 15 2 39 0 55 -2 15 -4 2 -4 -28z"/>
<path d="M305 980 c-3 -5 -1 -10 4 -10 6 0 11 5 11 10 0 6 -2 10 -4 10 -3 0
-8 -4 -11 -10z"/>
<path d="M3603 975 c0 -8 4 -15 9 -15 4 0 8 7 8 15 0 8 -4 15 -8 15 -5 0 -9
-7 -9 -15z"/>
<path d="M175 970 c-3 -6 1 -7 9 -4 18 7 21 14 7 14 -6 0 -13 -4 -16 -10z"/>
<path d="M625 961 c-3 -5 -1 -12 5 -16 5 -3 10 1 10 9 0 18 -6 21 -15 7z"/>
<path d="M3464 810 c0 -91 2 -128 3 -82 2 45 2 119 0 165 -1 45 -3 8 -3 -83z"/>
<path d="M4016 956 c5 -13 4 -17 -3 -13 -7 4 -13 -11 -18 -39 -9 -63 -1 -64
19 -2 12 37 13 55 6 62 -8 8 -9 6 -4 -8z"/>
<path d="M4093 930 c0 -25 2 -35 4 -22 2 12 2 32 0 45 -2 12 -4 2 -4 -23z"/>
<path d="M314 929 c-1 -16 3 -29 8 -29 4 0 6 -12 3 -27 -4 -23 -4 -24 4 -8 9
20 4 74 -8 87 -3 4 -6 -6 -7 -23z"/>
<path d="M565 949 c-4 -6 -5 -12 -2 -15 2 -3 7 2 10 11 7 17 1 20 -8 4z"/>
<path d="M661 943 c-7 -8 -10 -17 -7 -20 9 -9 29 13 25 25 -2 6 -10 3 -18 -5z"/>
<path d="M707 953 c-4 -3 -7 -25 -6 -47 l1 -41 9 44 c9 45 8 56 -4 44z"/>
<path d="M3562 945 c-1 -29 21 -80 36 -82 6 -2 12 3 12 11 0 8 -6 17 -12 20
-7 4 -2 4 11 2 18 -4 21 -2 12 7 -20 20 -12 28 14 11 13 -9 30 -14 37 -11 8 4
6 6 -4 6 -10 1 -18 5 -18 10 0 8 -20 17 -58 26 -6 2 -10 -1 -7 -5 3 -5 1 -11
-4 -14 -5 -4 -12 4 -14 16 -4 19 -4 20 -5 3z"/>
<path d="M4062 923 c-7 -22 -12 -49 -11 -59 0 -11 7 4 15 31 16 60 13 85 -4
28z"/>
<path d="M178 937 c-5 -10 -8 -35 -7 -55 0 -35 1 -35 10 -12 6 13 9 38 7 55
-2 24 -4 26 -10 12z"/>
<path d="M218 944 c-9 -14 2 -54 14 -54 5 0 7 -4 4 -9 -4 -5 -2 -20 3 -33 10
-23 10 -22 10 5 1 16 5 26 11 22 6 -3 10 -1 10 4 0 6 -6 11 -14 11 -7 0 -17
15 -22 32 -6 18 -13 28 -16 22z"/>
<path d="M112 910 c0 -14 2 -19 5 -12 2 6 2 18 0 25 -3 6 -5 1 -5 -13z"/>
<path d="M551 894 c0 -11 3 -14 6 -6 3 7 2 16 -1 19 -3 4 -6 -2 -5 -13z"/>
<path d="M3896 864 c-4 -9 -4 -19 -1 -22 2 -3 7 3 11 12 4 9 4 19 1 22 -2 3
-7 -3 -11 -12z"/>
<path d="M540 849 c0 -11 4 -18 10 -14 5 3 7 12 3 20 -7 21 -13 19 -13 -6z"/>
<path d="M721 854 c0 -11 3 -14 6 -6 3 7 2 16 -1 19 -3 4 -6 -2 -5 -13z"/>
<path d="M337 846 c-4 -9 1 -28 9 -43 l15 -28 -7 40 c-8 47 -10 51 -17 31z"/>
<path d="M3675 850 c-3 -5 -1 -10 4 -10 6 0 11 5 11 10 0 6 -2 10 -4 10 -3 0
-8 -4 -11 -10z"/>
<path d="M4134 586 c-1 -153 2 -276 7 -276 10 0 10 493 0 529 -3 13 -7 -101
-7 -253z"/>
<path d="M1685 840 c-3 -5 1 -10 9 -10 9 0 16 5 16 10 0 6 -4 10 -9 10 -6 0
-13 -4 -16 -10z"/>
<path d="M1860 844 c58 -8 150 -8 150 -1 0 4 -39 6 -87 6 -49 -1 -77 -3 -63
-5z"/>
<path d="M2153 843 c-10 -3 -13 -59 -13 -228 0 -123 3 -226 8 -228 4 -3 6 89
5 203 l-2 209 27 10 c20 9 21 10 5 7 -13 -2 -26 0 -29 5 -3 5 4 9 16 9 12 0
18 5 15 10 -7 11 -13 11 -32 3z"/>
<path d="M3591 840 c-1 -18 10 -34 26 -37 7 -2 10 4 7 12 -4 8 -10 13 -14 10
-5 -3 -11 3 -13 12 -3 13 -5 14 -6 3z"/>
<path d="M3940 840 c0 -6 5 -20 10 -31 13 -23 2 -49 -11 -28 -5 8 -9 9 -9 3 0
-5 6 -19 14 -29 12 -17 12 -25 1 -52 -8 -18 -12 -33 -9 -33 3 0 12 16 20 36
12 28 12 39 3 50 -11 13 -6 18 14 15 5 -1 6 8 2 19 -4 11 -2 20 4 20 6 0 11 8
11 17 0 15 -2 14 -15 -3 -13 -17 -14 -17 -15 -2 0 18 -20 36 -20 18z"/>
<path d="M4458 843 c7 -3 16 -2 19 1 4 3 -2 6 -13 5 -11 0 -14 -3 -6 -6z"/>
<path d="M4860 841 c0 -5 10 -7 23 -4 22 5 22 5 2 -10 -18 -14 -19 -16 -3 -34
9 -10 18 -27 21 -38 4 -15 5 -14 6 7 0 15 -3 30 -9 33 -19 12 -10 25 16 25 22
0 25 2 14 15 -13 16 -70 21 -70 6z"/>
<path d="M5336 834 c-9 -8 -16 -18 -16 -22 0 -3 5 -1 12 6 8 8 15 8 23 2 14
-11 45 -3 45 11 0 5 4 9 10 9 5 0 7 -14 4 -32 l-5 -33 14 30 c10 21 11 32 3
37 -19 13 -46 9 -46 -7 0 -8 -5 -15 -11 -15 -6 0 -9 7 -5 15 7 20 -8 19 -28
-1z"/>
<path d="M5565 841 c16 -8 17 -10 3 -10 -14 -1 -16 -29 -17 -288 -1 -158 1
-285 4 -282 3 4 6 128 6 277 0 150 4 274 9 277 4 3 7 -3 6 -12 -2 -10 -1 -12
1 -5 3 8 13 12 24 9 10 -3 19 -2 19 1 -1 17 -18 31 -45 36 -24 5 -26 4 -10 -3z"/>
<path d="M560 825 c-7 -9 -10 -18 -6 -22 3 -3 6 -1 6 5 0 6 7 9 15 6 11 -5 13
-2 9 10 -8 20 -8 20 -24 1z"/>
<path d="M622 823 c-5 -10 -6 -27 -1 -38 5 -14 8 -15 9 -5 1 8 3 25 6 38 5 26
-2 29 -14 5z"/>
<path d="M741 824 c0 -11 3 -14 6 -6 3 7 2 16 -1 19 -3 4 -6 -2 -5 -13z"/>
<path d="M1018 823 c-3 -10 -1 -27 3 -38 6 -16 8 -17 8 -3 1 9 7 18 14 21 9 3
8 9 -4 22 -15 16 -17 15 -21 -2z"/>
<path d="M1300 830 c-8 -5 -10 -10 -5 -10 6 0 17 5 25 10 8 5 11 10 5 10 -5 0
-17 -5 -25 -10z"/>
<path d="M1608 833 c-10 -2 -18 -9 -18 -14 0 -6 -4 -8 -10 -4 -10 6 -45 -53
-37 -62 3 -2 8 4 11 15 8 24 49 53 91 63 26 6 27 7 5 7 -14 0 -33 -2 -42 -5z"/>
<path d="M1728 833 c7 -3 16 -2 19 1 4 3 -2 6 -13 5 -11 0 -14 -3 -6 -6z"/>
<path d="M2208 833 c7 -3 16 -2 19 1 4 3 -2 6 -13 5 -11 0 -14 -3 -6 -6z"/>
<path d="M2457 829 c7 -7 15 -10 18 -7 3 3 -2 9 -12 12 -14 6 -15 5 -6 -5z"/>
<path d="M2546 829 c4 -8 -3 -9 -26 -4 -23 5 -30 4 -26 -4 11 -17 76 -14 76 4
0 8 -7 15 -16 15 -8 0 -12 -5 -8 -11z"/>
<path d="M2637 834 c-3 -5 15 -7 38 -6 25 2 56 -2 73 -10 20 -11 29 -11 29 -3
0 6 -5 12 -11 13 -70 10 -124 13 -129 6z"/>
<path d="M4405 831 c23 -7 25 -9 10 -11 -11 -1 -26 -2 -32 -1 -7 1 -13 -3 -13
-8 0 -5 10 -8 23 -5 12 3 41 6 64 6 24 0 45 4 49 9 3 5 -7 9 -23 9 -15 0 -46
2 -68 5 -35 4 -36 3 -10 -4z"/>
<path d="M4540 831 c-31 -9 -15 -19 25 -16 50 3 55 5 55 15 0 11 -42 12 -80 1z"/>
<path d="M4647 829 c7 -7 22 -13 35 -14 42 -4 43 -5 28 -15 -13 -8 -13 -10 2
-10 9 0 19 -6 21 -12 4 -10 6 -10 6 0 1 19 -39 54 -55 48 -8 -3 -14 -1 -14 4
0 6 -8 10 -17 10 -13 0 -14 -3 -6 -11z"/>
<path d="M5626 825 c4 -8 8 -15 10 -15 2 0 4 7 4 15 0 8 -4 15 -10 15 -5 0 -7
-7 -4 -15z"/>
<path d="M5875 824 c8 -6 13 -13 10 -15 -2 -3 37 -1 88 3 51 4 98 6 105 3 8
-3 10 0 6 6 -4 8 -29 9 -73 5 -47 -4 -62 -3 -51 4 11 8 0 10 -43 8 -44 -2 -54
-5 -42 -14z"/>
<path d="M6110 836 c0 -2 11 -6 25 -8 14 -3 25 -1 25 3 0 5 -11 9 -25 9 -14 0
-25 -2 -25 -4z"/>
<path d="M6448 833 c7 -3 16 -2 19 1 4 3 -2 6 -13 5 -11 0 -14 -3 -6 -6z"/>
<path d="M6725 824 c28 -8 55 -21 60 -27 6 -7 17 -13 25 -15 9 -2 5 6 -10 20
-13 13 -31 24 -40 25 -8 1 -31 4 -50 7 -24 4 -19 1 15 -10z"/>
<path d="M1223 823 c9 -2 23 -2 30 0 6 3 -1 5 -18 5 -16 0 -22 -2 -12 -5z"/>
<path d="M1980 820 c0 -5 7 -10 16 -10 8 0 12 5 9 10 -3 6 -10 10 -16 10 -5 0
-9 -4 -9 -10z"/>
<path d="M2391 801 c-18 -24 -19 -31 -7 -40 11 -9 16 -9 22 0 4 8 3 9 -4 5 -7
-4 -12 -1 -12 8 0 8 8 17 18 20 10 4 19 13 19 21 0 23 -14 18 -36 -14z"/>
<path d="M3686 823 c-4 -5 -13 -8 -18 -8 -6 0 -13 -7 -15 -15 -4 -13 -3 -13 7
0 9 12 10 8 5 -19 -5 -23 -4 -31 4 -27 6 4 11 18 11 32 0 14 4 23 8 20 5 -3 9
1 9 9 0 17 -1 18 -11 8z"/>
<path d="M3887 809 c3 -12 1 -24 -4 -28 -15 -9 -44 -116 -37 -135 4 -9 1 -16
-6 -16 -7 0 -10 -7 -6 -15 3 -8 1 -15 -5 -15 -6 0 -9 -6 -6 -12 2 -7 -2 -26
-10 -42 -11 -20 -12 -31 -4 -39 8 -8 11 -4 12 13 l1 25 7 -25 c4 -14 4 -30 -1
-37 -6 -7 -4 -14 3 -19 8 -4 9 -3 5 4 -4 7 -2 12 5 12 8 0 10 13 6 39 -4 30 0
44 15 61 11 11 18 26 15 33 -2 7 -11 -3 -21 -20 -21 -43 -26 -42 -12 2 6 19
14 35 18 35 5 0 8 7 8 16 0 8 -4 13 -9 10 -11 -7 8 72 25 106 16 30 19 68 5
68 -5 0 -7 -9 -4 -21z"/>
<path d="M4072 810 c0 -14 2 -19 5 -12 2 6 2 18 0 25 -3 6 -5 1 -5 -13z"/>
<path d="M4325 820 c-14 -6 -15 -9 -5 -10 9 -1 6 -5 -7 -10 -13 -5 -23 -14
-23 -20 0 -16 37 6 50 30 6 11 9 20 8 19 -2 0 -12 -4 -23 -9z"/>
<path d="M5808 813 c-23 -28 -30 -43 -19 -43 6 0 11 5 11 11 0 17 24 36 39 31
8 -3 11 0 7 7 -10 16 -20 14 -38 -6z"/>
<path d="M6416 815 c4 -8 8 -15 10 -15 2 0 4 7 4 15 0 8 -4 15 -10 15 -5 0 -7
-7 -4 -15z"/>
<path d="M251 804 c0 -11 3 -14 6 -6 3 7 2 16 -1 19 -3 4 -6 -2 -5 -13z"/>
<path d="M1350 810 c-13 -8 -12 -10 3 -10 9 0 17 5 17 10 0 12 -1 12 -20 0z"/>
<path d="M1639 803 c-13 -15 -12 -15 11 -3 34 17 36 20 18 20 -9 0 -22 -7 -29
-17z"/>
<path d="M1708 813 c12 -2 30 -2 40 0 9 3 -1 5 -23 4 -22 0 -30 -2 -17 -4z"/>
<path d="M1853 813 c9 -2 23 -2 30 0 6 3 -1 5 -18 5 -16 0 -22 -2 -12 -5z"/>
<path d="M2700 813 c8 -3 21 -10 28 -16 7 -5 15 -7 19 -3 10 9 0 15 -33 20
-16 2 -22 1 -14 -1z"/>
<path d="M6115 810 c3 -5 8 -10 11 -10 2 0 4 5 4 10 0 6 -5 10 -11 10 -5 0 -7
-4 -4 -10z"/>
<path d="M6377 793 c-8 -16 -14 -46 -14 -68 -1 -32 1 -35 6 -15 5 17 13 24 25
22 12 -2 16 1 13 10 -2 7 -12 12 -21 12 -19 -2 -19 -3 -3 30 8 14 18 22 22 18
5 -4 5 -1 1 6 -10 17 -14 15 -29 -15z"/>
<path d="M6705 807 c17 -8 32 -13 34 -11 7 7 -3 12 -34 19 l-30 6 30 -14z"/>
<path d="M90 585 c0 -126 2 -226 5 -224 7 7 7 440 1 447 -3 3 -6 -97 -6 -223z"/>
<path d="M1294 794 c17 -16 19 -29 16 -106 -1 -27 2 -48 7 -48 4 0 7 20 5 45
-2 25 0 45 5 45 7 0 8 16 4 65 -1 6 -5 4 -10 -3 -7 -11 -9 -11 -14 2 -4 9 -11
16 -17 16 -6 0 -4 -7 4 -16z"/>
<path d="M4647 800 c6 -8 13 -26 16 -40 l4 -25 2 26 c0 15 -7 33 -16 40 -16
12 -17 12 -6 -1z"/>
<path d="M6145 795 c4 -11 7 -65 7 -120 0 -90 1 -95 9 -50 5 28 7 74 5 103 -1
29 1 55 5 58 5 3 9 11 9 17 0 7 -4 6 -10 -3 -9 -13 -11 -13 -21 0 -9 12 -10
11 -4 -5z"/>
<path d="M991 784 c0 -11 3 -14 6 -6 3 7 2 16 -1 19 -3 4 -6 -2 -5 -13z"/>
<path d="M2795 790 c-3 -5 -2 -10 4 -10 5 0 12 -8 14 -17 4 -14 5 -13 6 4 1
24 -14 39 -24 23z"/>
<path d="M6215 790 c3 -5 8 -10 11 -10 2 0 4 5 4 10 0 6 -5 10 -11 10 -5 0 -7
-4 -4 -10z"/>
<path d="M6440 789 c0 -5 5 -7 10 -4 6 3 10 8 10 11 0 2 -4 4 -10 4 -5 0 -10
-5 -10 -11z"/>
<path d="M527 773 c3 -7 0 -19 -5 -26 -6 -7 -14 -33 -17 -57 l-5 -45 13 48
c15 51 27 71 27 44 0 -9 7 -17 15 -17 8 0 15 -6 15 -12 0 -9 4 -8 10 2 5 8 10
20 10 25 0 6 -5 3 -10 -5 -8 -12 -10 -10 -10 8 0 13 4 20 10 17 6 -3 10 -1 10
4 0 6 -9 11 -21 11 -16 0 -19 -4 -14 -22 5 -20 5 -21 -5 -5 -7 10 -9 24 -7 31
3 7 -1 13 -8 13 -7 0 -11 -6 -8 -14z"/>
<path d="M942 762 c-16 -34 -9 -39 12 -8 8 14 12 27 8 30 -4 2 -13 -7 -20 -22z"/>
<path d="M1380 781 c0 -5 5 -13 10 -16 6 -3 10 -2 10 4 0 5 -4 13 -10 16 -5 3
-10 2 -10 -4z"/>
<path d="M2426 775 c-9 -26 -7 -32 5 -12 6 10 9 21 6 23 -2 3 -7 -2 -11 -11z"/>
<path d="M2773 754 c9 -29 12 -33 18 -18 3 11 2 21 -2 22 -5 2 -9 10 -9 18 0
8 -4 14 -9 14 -5 0 -4 -16 2 -36z"/>
<path d="M3701 775 c-1 -22 21 -90 32 -101 4 -4 0 17 -9 47 -21 73 -22 77 -23
54z"/>
<path d="M4050 770 c0 -19 3 -21 12 -12 9 9 9 15 0 24 -9 9 -12 7 -12 -12z"/>
<path d="M5306 764 c-4 -14 -5 -28 -3 -31 3 -2 8 8 11 23 4 14 5 28 3 31 -3 2
-8 -8 -11 -23z"/>
<path d="M5631 773 c0 -12 -7 -24 -13 -26 -10 -4 -9 -8 2 -16 12 -8 16 -6 18
9 2 11 1 28 -1 38 -4 13 -5 12 -6 -5z"/>
<path d="M5815 780 c-3 -5 -1 -10 4 -10 6 0 11 5 11 10 0 6 -2 10 -4 10 -3 0
-8 -4 -11 -10z"/>
<path d="M5855 780 c-3 -5 -1 -10 4 -10 6 0 11 5 11 10 0 6 -2 10 -4 10 -3 0
-8 -4 -11 -10z"/>
<path d="M260 775 c0 -5 5 -17 10 -25 5 -8 10 -10 10 -5 0 6 -5 17 -10 25 -5
8 -10 11 -10 5z"/>
<path d="M313 769 c-7 -7 -13 -18 -13 -23 0 -6 4 -5 9 3 7 11 10 9 16 -8 3
-11 11 -21 17 -21 7 0 7 4 0 13 -5 6 -11 20 -13 30 -3 15 -6 16 -16 6z"/>
<path d="M1620 771 c0 -5 -9 -11 -20 -14 -11 -3 -20 -10 -20 -15 0 -6 9 -6 25
1 21 10 36 37 20 37 -3 0 -5 -4 -5 -9z"/>
<path d="M4685 726 c-4 -29 -5 -63 -2 -77 2 -13 5 -1 6 26 0 28 8 60 16 72 13
18 13 22 1 26 -11 5 -16 -7 -21 -47z"/>
<path d="M4927 773 c-4 -3 -7 -16 -6 -27 0 -19 1 -19 10 3 10 24 8 36 -4 24z"/>
<path d="M5331 764 c0 -11 3 -14 6 -6 3 7 2 16 -1 19 -3 4 -6 -2 -5 -13z"/>
<path d="M5384 747 c-1 -30 -1 -30 9 -9 6 14 7 26 1 32 -5 5 -9 -4 -10 -23z"/>
<path d="M6741 764 c0 -11 3 -14 6 -6 3 7 2 16 -1 19 -3 4 -6 -2 -5 -13z"/>
<path d="M361 754 c0 -11 3 -14 6 -6 3 7 2 16 -1 19 -3 4 -6 -2 -5 -13z"/>
<path d="M4320 753 c0 -14 2 -15 9 -4 7 11 10 11 14 -3 5 -15 5 -15 3 0 -2 24
-26 30 -26 7z"/>
<path d="M607 740 c-3 -11 -1 -20 4 -20 5 0 9 9 9 20 0 11 -2 20 -4 20 -2 0
-6 -9 -9 -20z"/>
<path d="M704 640 c0 -69 1 -97 3 -62 2 34 2 90 0 125 -2 34 -3 6 -3 -63z"/>
<path d="M990 742 c11 -22 31 -22 29 1 0 8 -2 8 -6 -1 -4 -10 -9 -9 -20 5 -13
17 -13 16 -3 -5z"/>
<path d="M3432 735 c0 -16 2 -22 5 -12 2 9 2 23 0 30 -3 6 -5 -1 -5 -18z"/>
<path d="M3610 750 c0 -5 5 -10 11 -10 5 0 7 5 4 10 -3 6 -8 10 -11 10 -2 0
-4 -4 -4 -10z"/>
<path d="M3890 745 c-7 -9 -10 -18 -7 -21 3 -3 10 4 17 15 13 25 8 27 -10 6z"/>
<path d="M4946 745 c-3 -8 -1 -15 4 -15 6 0 10 7 10 15 0 8 -2 15 -4 15 -2 0
-6 -7 -10 -15z"/>
<path d="M5776 736 c-8 -28 -8 -391 0 -383 3 3 6 38 7 76 0 39 5 71 10 71 5 0
4 7 -3 15 -10 12 -10 21 -1 41 13 30 14 45 1 24 -7 -11 -10 0 -10 37 0 28 5
55 11 59 6 3 9 19 6 34 -3 15 -2 31 4 37 6 6 5 10 -5 10 -8 0 -17 -10 -20 -21z"/>
<path d="M5831 751 c-6 -4 -11 -12 -10 -17 1 -5 -1 -17 -5 -26 -4 -10 -6 -23
-3 -30 3 -7 6 -2 7 12 1 23 2 24 11 5 7 -16 9 -14 6 13 -2 18 0 35 5 38 13 8
9 -101 -4 -115 -11 -10 -10 -11 5 -6 13 6 17 19 17 65 0 60 -7 74 -29 61z"/>
<path d="M6790 751 c0 -6 4 -13 10 -16 6 -3 7 1 4 9 -7 18 -14 21 -14 7z"/>
<path d="M3641 734 c0 -11 3 -14 6 -6 3 7 2 16 -1 19 -3 4 -6 -2 -5 -13z"/>
<path d="M4280 740 c0 -5 5 -10 11 -10 5 0 7 5 4 10 -3 6 -8 10 -11 10 -2 0
-4 -4 -4 -10z"/>
<path d="M158 729 c-6 -19 3 -60 12 -54 5 3 6 18 4 32 -6 33 -10 39 -16 22z"/>
<path d="M1395 528 c3 -191 1 -219 -13 -236 -9 -10 -23 -17 -29 -15 -7 3 -13
0 -13 -6 0 -6 14 -11 31 -11 17 0 28 4 24 10 -3 6 -1 10 4 10 13 0 14 401 1
440 -5 14 -7 -71 -5 -192z"/>
<path d="M1556 727 c3 -10 9 -15 12 -12 3 3 0 11 -7 18 -10 9 -11 8 -5 -6z"/>
<path d="M1603 674 c4 -38 7 -124 7 -191 0 -71 4 -123 9 -123 6 0 9 74 8 187
-2 150 -5 187 -16 191 -12 4 -13 -7 -8 -64z"/>
<path d="M1922 580 c-2 -153 5 -206 25 -187 4 5 2 11 -5 15 -8 6 -12 58 -15
172 l-3 165 -2 -165z"/>
<path d="M2198 574 c2 -90 7 -164 12 -164 5 0 11 -15 13 -32 2 -18 5 55 5 162
2 180 1 196 -15 197 -17 1 -18 -12 -15 -163z"/>
<path d="M2745 731 c-3 -5 0 -13 6 -17 7 -4 9 -3 5 4 -3 5 0 13 6 15 9 4 10 6
1 6 -6 1 -14 -3 -18 -8z"/>
<path d="M2821 723 c-16 -17 -11 -25 8 -14 7 5 12 13 10 19 -2 6 -10 4 -18 -5z"/>
<path d="M5336 727 c3 -10 9 -15 12 -12 3 3 0 11 -7 18 -10 9 -11 8 -5 -6z"/>
<path d="M6221 693 c1 -53 6 -49 11 10 2 20 0 37 -4 37 -4 0 -8 -21 -7 -47z"/>
<path d="M6431 724 c0 -11 3 -14 6 -6 3 7 2 16 -1 19 -3 4 -6 -2 -5 -13z"/>
<path d="M6822 720 c0 -14 2 -19 5 -12 2 6 2 18 0 25 -3 6 -5 1 -5 -13z"/>
<path d="M360 714 c0 -8 5 -12 10 -9 6 4 8 11 5 16 -9 14 -15 11 -15 -7z"/>
<path d="M724 515 c0 -121 2 -169 3 -107 2 62 2 161 0 220 -1 59 -3 8 -3 -113z"/>
<path d="M2413 690 c0 -25 2 -35 4 -22 2 12 2 32 0 45 -2 12 -4 2 -4 -23z"/>
<path d="M2444 570 c0 -91 2 -128 3 -82 2 45 2 119 0 165 -1 45 -3 8 -3 -83z"/>
<path d="M3690 715 c0 -11 5 -27 10 -35 8 -12 10 -12 10 5 0 11 -5 27 -10 35
-8 12 -10 12 -10 -5z"/>
<path d="M4052 700 c0 -19 2 -27 5 -17 2 9 2 25 0 35 -3 9 -5 1 -5 -18z"/>
<path d="M4360 691 c0 -22 -5 -41 -11 -43 -9 -3 -9 -10 0 -26 7 -14 11 -64 10
-133 -1 -60 2 -113 5 -116 3 -4 6 75 6 175 0 100 -2 182 -5 182 -3 0 -5 -18
-5 -39z"/>
<path d="M4664 550 c0 -102 2 -143 3 -92 2 50 2 134 0 185 -1 50 -3 9 -3 -93z"/>
<path d="M6183 690 c0 -25 2 -35 4 -22 2 12 2 32 0 45 -2 12 -4 2 -4 -23z"/>
<path d="M6740 714 c0 -8 5 -12 10 -9 6 4 8 11 5 16 -9 14 -15 11 -15 -7z"/>
<path d="M277 699 c4 -13 8 -18 11 -10 2 7 -1 18 -6 23 -8 8 -9 4 -5 -13z"/>
<path d="M4084 605 c0 -66 1 -92 3 -57 2 34 2 88 0 120 -2 31 -3 3 -3 -63z"/>
<path d="M4730 706 c0 -9 5 -16 10 -16 6 0 10 4 10 9 0 6 -4 13 -10 16 -5 3
-10 -1 -10 -9z"/>
<path d="M4920 700 c6 -11 13 -20 16 -20 2 0 0 9 -6 20 -6 11 -13 20 -16 20
-2 0 0 -9 6 -20z"/>
<path d="M5286 704 c-3 -9 -2 -23 4 -32 7 -14 9 -10 10 16 0 35 -5 41 -14 16z"/>
<path d="M588 693 c0 -10 -1 -24 -1 -30 1 -15 -13 -17 -22 -3 -3 6 -11 10 -17
10 -5 0 0 -8 13 -19 21 -17 22 -22 12 -55 -6 -20 -8 -34 -3 -31 11 7 32 94 25
105 -3 5 -1 11 5 15 13 8 13 25 0 25 -5 0 -11 -8 -12 -17z"/>
<path d="M963 695 c0 -10 10 -15 29 -15 26 0 28 2 14 15 -8 8 -21 15 -29 15
-7 0 -14 -7 -14 -15z"/>
<path d="M3630 688 c0 -16 5 -28 10 -28 13 0 13 20 0 40 -8 12 -10 9 -10 -12z"/>
<path d="M1532 590 c0 -63 3 -124 7 -135 12 -28 13 171 2 215 -7 26 -9 6 -9
-80z"/>
<path d="M2363 562 c-2 -90 1 -142 7 -142 6 0 10 44 9 113 -2 169 -14 190 -16
29z"/>
<path d="M2750 688 c0 -5 18 -8 40 -8 22 0 40 2 40 4 0 2 -18 6 -40 8 -22 2
-40 0 -40 -4z"/>
<path d="M3875 690 c-8 -12 5 -60 16 -60 13 0 11 17 -2 26 -6 3 -9 15 -6 25 6
20 2 25 -8 9z"/>
<path d="M3902 680 c0 -14 2 -19 5 -12 2 6 2 18 0 25 -3 6 -5 1 -5 -13z"/>
<path d="M5321 684 c0 -11 3 -14 6 -6 3 7 2 16 -1 19 -3 4 -6 -2 -5 -13z"/>
<path d="M6242 670 c0 -19 2 -27 5 -17 2 9 2 25 0 35 -3 9 -5 1 -5 -18z"/>
<path d="M6430 668 c0 -21 2 -38 4 -38 9 0 12 50 5 62 -6 8 -9 -1 -9 -24z"/>
<path d="M6755 690 c-8 -13 5 -13 25 0 13 8 13 10 -2 10 -9 0 -20 -4 -23 -10z"/>
<path d="M345 679 c-4 -6 -5 -12 -2 -15 2 -3 7 2 10 11 7 17 1 20 -8 4z"/>
<path d="M370 680 c0 -17 17 -47 23 -40 2 3 -2 16 -10 30 -7 14 -13 18 -13 10z"/>
<path d="M2394 555 c0 -77 2 -107 3 -67 2 40 2 103 0 140 -2 37 -3 4 -3 -73z"/>
<path d="M4970 664 c0 -8 5 -12 10 -9 6 4 8 11 5 16 -9 14 -15 11 -15 -7z"/>
<path d="M4941 660 c0 -8 4 -22 9 -30 12 -18 12 -2 0 25 -6 13 -9 15 -9 5z"/>
<path d="M6361 649 c-1 -15 6 -29 14 -33 12 -4 13 -2 7 12 -5 9 -12 24 -15 32
-3 9 -6 4 -6 -11z"/>
<path d="M2988 654 c6 -3 10 -10 6 -15 -3 -5 49 -9 125 -9 98 0 131 3 131 13
0 8 4 7 11 -3 8 -11 12 -12 16 -2 2 6 9 12 14 12 6 0 7 -5 3 -12 -4 -7 -3 -8
4 -4 31 19 -1 24 -155 24 -93 1 -162 -1 -155 -4z m49 -10 c-3 -3 -12 -4 -19
-1 -8 3 -5 6 6 6 11 1 17 -2 13 -5z m131 -1 c-10 -2 -28 -2 -40 0 -13 2 -5 4
17 4 22 1 32 -1 23 -4z"/>
<path d="M3640 641 c0 -5 5 -13 10 -16 6 -3 10 -2 10 4 0 5 -4 13 -10 16 -5 3
-10 2 -10 -4z"/>
<path d="M3692 620 c0 -19 2 -27 5 -17 2 9 2 25 0 35 -3 9 -5 1 -5 -18z"/>
<path d="M4052 475 l-2 -181 25 0 c14 0 25 6 25 14 0 9 -7 11 -20 7 -19 -6
-20 0 -23 167 l-3 173 -2 -180z"/>
<path d="M4743 570 c0 -47 2 -66 4 -42 2 23 2 61 0 85 -2 23 -4 4 -4 -43z"/>
<path d="M472 573 c-12 -40 -25 -80 -29 -89 -5 -14 -3 -14 16 -3 12 8 16 16
10 18 -6 2 -5 9 4 20 19 22 28 51 16 51 -6 0 -6 7 1 21 6 11 10 28 8 37 -2 9
-14 -15 -26 -55z"/>
<path d="M3746 600 c4 -25 10 -50 15 -56 5 -6 7 -18 3 -27 -3 -8 -1 -18 5 -22
17 -10 13 34 -9 95 l-20 55 6 -45z"/>
<path d="M5026 631 c-4 -6 -12 -9 -17 -6 -5 4 -9 1 -9 -5 0 -7 8 -9 20 -5 23
7 23 7 9 -33 -7 -22 -7 -36 0 -49 9 -15 11 -14 9 12 -1 17 1 39 5 50 8 24 -7
53 -17 36z"/>
<path d="M5811 624 c0 -11 3 -14 6 -6 3 7 2 16 -1 19 -3 4 -6 -2 -5 -13z"/>
<path d="M305 620 c3 -5 8 -10 11 -10 2 0 4 5 4 10 0 6 -5 10 -11 10 -5 0 -7
-4 -4 -10z"/>
<path d="M1312 600 c0 -19 2 -27 5 -17 2 9 2 25 0 35 -3 9 -5 1 -5 -18z"/>
<path d="M3924 614 c-3 -10 -10 -28 -14 -39 -14 -34 -21 -87 -10 -80 6 3 10
14 10 24 0 10 7 38 15 61 8 24 13 45 10 48 -2 3 -7 -4 -11 -14z"/>
<path d="M5311 601 c-1 -16 -6 -21 -15 -18 -10 4 -13 1 -9 -9 8 -21 -13 -17
-23 5 -8 18 -10 18 -24 3 -13 -14 -12 -15 3 -9 11 4 17 2 17 -7 0 -24 24 -24
43 1 10 13 16 31 14 41 -3 12 -5 10 -6 -7z"/>
<path d="M6423 613 c-20 -7 -15 -19 7 -19 11 0 20 4 20 8 0 10 -13 16 -27 11z"/>
<path d="M401 594 c0 -11 3 -14 6 -6 3 7 2 16 -1 19 -3 4 -6 -2 -5 -13z"/>
<path d="M3650 604 c0 -6 7 -19 16 -30 14 -18 14 -18 3 6 -14 31 -19 36 -19
24z"/>
<path d="M4976 584 c-9 -24 -2 -26 12 -4 7 11 8 20 3 20 -5 0 -12 -7 -15 -16z"/>
<path d="M5616 570 c-4 -19 -1 -80 7 -135 l14 -100 1 115 c1 125 -10 183 -22
120z m11 -62 c-2 -13 -4 -3 -4 22 0 25 2 35 4 23 2 -13 2 -33 0 -45z"/>
<path d="M5850 580 c0 -11 7 -20 15 -20 13 0 14 4 5 20 -6 11 -13 20 -15 20
-3 0 -5 -9 -5 -20z"/>
<path d="M6241 584 c0 -11 3 -14 6 -6 3 7 2 16 -1 19 -3 4 -6 -2 -5 -13z"/>
<path d="M1337 577 c-3 -8 1 -14 8 -14 7 0 11 6 8 14 -3 7 -6 13 -8 13 -2 0
-5 -6 -8 -13z"/>
<path d="M361 564 c0 -11 3 -14 6 -6 3 7 2 16 -1 19 -3 4 -6 -2 -5 -13z"/>
<path d="M2003 500 c0 -47 2 -66 4 -42 2 23 2 61 0 85 -2 23 -4 4 -4 -43z"/>
<path d="M4700 536 c0 -25 5 -48 10 -51 6 -4 10 11 10 39 0 25 -4 48 -10 51
-6 4 -10 -11 -10 -39z"/>
<path d="M6390 570 c0 -5 5 -10 11 -10 6 0 17 -7 25 -15 9 -8 23 -15 32 -14
13 0 13 2 -3 9 -12 4 -27 15 -34 24 -15 18 -31 21 -31 6z"/>
<path d="M3454 488 c3 -46 2 -72 -3 -58 -5 17 -8 -4 -8 -60 0 -77 0 -81 9 -40
16 81 22 240 8 240 -9 0 -11 -21 -6 -82z"/>
<path d="M4284 455 c0 -66 1 -92 3 -57 2 34 2 88 0 120 -2 31 -3 3 -3 -63z"/>
<path d="M4323 530 c0 -25 2 -35 4 -22 2 12 2 32 0 45 -2 12 -4 2 -4 -23z"/>
<path d="M5830 548 c0 -16 5 -28 10 -28 13 0 13 20 0 40 -8 12 -10 9 -10 -12z"/>
<path d="M320 550 c0 -5 5 -10 10 -10 6 0 10 5 10 10 0 6 -4 10 -10 10 -5 0
-10 -4 -10 -10z"/>
<path d="M406 545 c-9 -26 -7 -32 5 -12 6 10 9 21 6 23 -2 3 -7 -2 -11 -11z"/>
<path d="M1032 550 c15 -9 55 -7 64 3 4 4 -12 6 -35 5 -24 -1 -37 -5 -29 -8z"/>
<path d="M1138 553 c6 -2 10 -9 6 -14 -3 -5 7 -9 21 -9 14 0 24 4 20 9 -3 6
17 12 47 14 38 2 31 4 -27 4 -44 1 -74 -1 -67 -4z"/>
<path d="M1286 545 c-3 -9 1 -18 9 -21 12 -5 15 -28 17 -103 l2 -96 3 91 c3
64 0 98 -10 118 -12 21 -16 23 -21 11z"/>
<path d="M5006 535 c4 -23 3 -26 -5 -15 -12 17 -13 4 -2 -25 7 -17 8 -17 15 8
3 15 2 35 -4 45 -8 13 -9 11 -4 -13z"/>
<path d="M5224 545 c-3 -8 -4 -20 -2 -27 3 -7 7 -1 10 15 6 29 1 36 -8 12z"/>
<path d="M5298 535 c-19 -26 -22 -35 -10 -35 7 0 34 51 29 56 -1 1 -10 -8 -19
-21z"/>
<path d="M5900 549 c0 -5 -4 -7 -10 -4 -5 3 -10 1 -10 -4 0 -6 7 -11 15 -11 8
0 15 6 15 13 0 8 4 7 10 -3 6 -10 10 -11 10 -2 0 8 22 12 75 12 43 0 75 -4 75
-10 0 -5 19 -9 43 -8 l42 1 -38 4 c-20 2 -35 8 -32 14 4 5 -34 9 -94 9 -65 0
-101 -4 -101 -11z"/>
<path d="M6220 545 c-7 -8 -8 -15 -2 -15 5 0 15 7 22 15 7 8 8 15 2 15 -5 0
-15 -7 -22 -15z"/>
<path d="M6510 549 c19 -5 41 -6 48 -4 6 2 12 0 12 -5 0 -6 5 -10 11 -10 5 0
7 6 3 13 -5 7 0 6 11 -3 11 -9 16 -10 11 -2 -4 7 -2 12 8 12 8 0 16 -4 18 -9
2 -5 11 -4 21 3 14 11 2 13 -80 13 -73 0 -89 -2 -63 -8z"/>
<path d="M6691 556 c2 -2 22 -6 44 -9 28 -5 34 -4 20 3 -19 8 -73 14 -64 6z"/>
<path d="M985 540 c-3 -5 -2 -10 4 -10 5 0 13 5 16 10 3 6 2 10 -4 10 -5 0
-13 -4 -16 -10z"/>
<path d="M3881 534 c0 -11 3 -14 6 -6 3 7 2 16 -1 19 -3 4 -6 -2 -5 -13z"/>
<path d="M554 525 c-3 -8 -4 -20 -2 -27 3 -7 7 -1 10 15 6 29 1 36 -8 12z"/>
<path d="M1030 531 c12 -8 12 -11 -3 -17 -18 -7 -23 -57 -9 -91 5 -12 9 -1 12
37 4 47 8 55 30 61 14 4 18 7 8 8 -9 1 -25 4 -35 7 -15 5 -15 4 -3 -5z"/>
<path d="M5255 529 c-10 -15 3 -25 16 -12 7 7 7 13 1 17 -6 3 -14 1 -17 -5z"/>
<path d="M5963 533 c9 -2 23 -2 30 0 6 3 -1 5 -18 5 -16 0 -22 -2 -12 -5z"/>
<path d="M6038 533 c6 -2 18 -2 25 0 6 3 1 5 -13 5 -14 0 -19 -2 -12 -5z"/>
<path d="M6775 530 c-3 -5 -1 -10 4 -10 6 0 11 5 11 10 0 6 -2 10 -4 10 -3 0
-8 -4 -11 -10z"/>
<path d="M336 513 c-4 -9 -3 -20 1 -24 4 -4 9 3 9 17 2 28 -1 31 -10 7z"/>
<path d="M367 516 c-10 -26 -8 -43 3 -26 8 12 10 12 10 1 0 -8 2 -12 5 -9 3 3
2 15 -3 28 -8 20 -9 21 -15 6z"/>
<path d="M421 514 c0 -11 3 -14 6 -6 3 7 2 16 -1 19 -3 4 -6 -2 -5 -13z"/>
<path d="M5060 508 c0 -8 9 -18 20 -21 11 -3 20 -11 20 -17 0 -9 -4 -9 -13 -2
-9 8 -13 -1 -15 -43 -2 -29 1 -56 6 -59 6 -3 7 13 4 41 -3 33 -2 44 7 39 25
-16 23 26 -3 52 -20 20 -26 23 -26 10z"/>
<path d="M5202 503 c1 -5 -10 -32 -25 -61 l-28 -53 -20 23 c-17 19 -19 20 -11
3 5 -11 7 -26 4 -34 -3 -10 0 -12 12 -8 10 4 22 7 27 7 5 0 9 10 10 23 0 21 1
21 10 2 8 -17 9 -17 5 5 -3 14 -1 32 4 40 7 11 10 11 10 2 0 -7 4 -11 9 -8 5
3 7 16 3 28 -4 16 -2 19 9 13 12 -8 12 -6 0 8 -14 18 -22 22 -19 10z"/>
<path d="M6745 498 c-3 -7 -6 -53 -7 -103 l-3 -90 -33 -10 c-39 -11 -37 -29 4
-32 l29 -2 -30 9 -30 8 28 1 c15 0 30 8 34 17 4 12 7 13 14 3 4 -8 11 -10 16
-6 4 5 2 11 -4 15 -8 5 -12 38 -12 91 0 70 3 82 16 77 11 -5 14 -2 9 10 -3 8
-6 18 -6 20 0 10 -21 3 -25 -8z"/>
<path d="M6793 467 c0 -38 0 -38 4 -7 l5 35 13 -30 c11 -25 14 -26 14 -9 1 11
-7 28 -17 37 -17 16 -18 14 -19 -26z"/>
<path d="M945 489 c-11 -16 -1 -19 13 -3 7 8 8 14 3 14 -5 0 -13 -5 -16 -11z"/>
<path d="M988 463 c5 -59 10 -63 11 -10 1 26 -3 47 -7 47 -4 0 -6 -17 -4 -37z"/>
<path d="M143 450 c0 -25 2 -35 4 -22 2 12 2 32 0 45 -2 12 -4 2 -4 -23z"/>
<path d="M2410 450 c0 -39 -6 -45 -37 -41 -8 1 -13 -8 -12 -21 0 -22 1 -22 9
-3 l9 20 1 -20 c1 -11 4 -14 7 -7 2 6 10 12 17 12 8 0 13 18 15 50 1 28 0 50
-4 50 -3 0 -5 -18 -5 -40z"/>
<path d="M3721 474 c0 -11 3 -14 6 -6 3 7 2 16 -1 19 -3 4 -6 -2 -5 -13z"/>
<path d="M4683 450 c0 -25 2 -35 4 -22 2 12 2 32 0 45 -2 12 -4 2 -4 -23z"/>
<path d="M5021 474 c0 -11 3 -14 6 -6 3 7 2 16 -1 19 -3 4 -6 -2 -5 -13z"/>
<path d="M5830 468 c0 -19 -2 -20 -10 -8 -7 12 -10 8 -10 -15 0 -24 3 -27 11
-15 7 11 8 5 3 -21 -3 -22 -2 -39 5 -43 8 -5 11 14 11 58 0 36 -2 66 -5 66 -3
0 -5 -10 -5 -22z"/>
<path d="M526 462 c-4 -12 -4 -26 -1 -32 3 -5 2 -10 -4 -10 -5 0 -11 5 -13 12
-3 8 -6 7 -10 -3 -4 -10 1 -15 13 -16 24 -2 43 31 31 54 -9 14 -10 14 -16 -5z"/>
<path d="M5852 455 c0 -16 2 -22 5 -12 2 9 2 23 0 30 -3 6 -5 -1 -5 -18z"/>
<path d="M3741 444 c0 -11 3 -14 6 -6 3 7 2 16 -1 19 -3 4 -6 -2 -5 -13z"/>
<path d="M6771 444 c0 -11 3 -14 6 -6 3 7 2 16 -1 19 -3 4 -6 -2 -5 -13z"/>
<path d="M162 430 c0 -14 2 -19 5 -12 2 6 2 18 0 25 -3 6 -5 1 -5 -13z"/>
<path d="M5257 444 c-4 -4 -7 -17 -7 -28 1 -19 1 -20 11 -3 11 19 8 43 -4 31z"/>
<path d="M5040 435 c0 -5 5 -17 10 -25 5 -8 10 -10 10 -5 0 6 -5 17 -10 25 -5
8 -10 11 -10 5z"/>
<path d="M3707 423 c-4 -3 -7 -11 -7 -17 0 -6 5 -5 12 2 6 6 9 14 7 17 -3 3
-9 2 -12 -2z"/>
<path d="M3851 422 c-1 -7 6 -20 14 -28 13 -14 15 -13 15 6 0 12 -4 19 -9 16
-5 -4 -12 0 -14 6 -4 10 -6 10 -6 0z"/>
<path d="M1351 398 c-1 -10 6 -18 14 -18 8 0 15 8 15 18 0 13 -2 14 -9 3 -7
-11 -9 -11 -14 0 -4 10 -6 9 -6 -3z"/>
<path d="M1540 403 c0 -4 5 -15 10 -23 8 -13 10 -13 10 2 0 9 -4 20 -10 23 -5
3 -10 3 -10 -2z"/>
<path d="M4077 390 c3 -11 7 -20 9 -20 2 0 4 9 4 20 0 11 -4 20 -9 20 -5 0 -7
-9 -4 -20z"/>
<path d="M5200 401 c0 -17 18 -21 24 -6 3 9 0 15 -9 15 -8 0 -15 -4 -15 -9z"/>
<path d="M5852 390 c0 -14 2 -19 5 -12 2 6 2 18 0 25 -3 6 -5 1 -5 -13z"/>
<path d="M155 376 c20 -30 25 -32 25 -11 0 8 -9 19 -21 25 -20 11 -20 11 -4
-14z"/>
<path d="M367 370 c3 -14 9 -29 14 -35 7 -7 8 -4 3 9 -5 13 -4 17 4 12 8 -5
10 -2 6 8 -3 9 -10 14 -14 11 -5 -3 -10 0 -13 7 -2 7 -2 2 0 -12z"/>
<path d="M991 363 c0 -24 4 -43 9 -43 6 0 10 -8 10 -17 0 -15 2 -16 10 -3 13
21 12 30 -2 28 -8 -2 -15 13 -19 37 l-6 40 -2 -42z"/>
<path d="M1012 375 c0 -16 2 -22 5 -12 2 9 2 23 0 30 -3 6 -5 -1 -5 -18z"/>
<path d="M2194 389 c-3 -6 -1 -16 5 -22 8 -8 11 -5 11 11 0 24 -5 28 -16 11z"/>
<path d="M3714 385 c-4 -8 -4 -21 -1 -29 7 -17 50 -30 44 -13 -2 7 -12 11 -21
10 -14 -1 -16 4 -12 23 7 26 -1 33 -10 9z"/>
<path d="M4681 392 c0 -7 5 -28 13 -46 10 -25 11 -37 3 -45 -8 -8 -8 -11 1
-11 7 0 12 5 12 11 0 5 5 7 12 3 8 -5 9 -2 5 10 -4 10 -7 22 -7 27 0 6 -5 7
-11 3 -9 -5 -10 1 -5 22 4 19 3 24 -3 15 -7 -11 -10 -10 -14 5 -2 10 -5 13 -6
6z"/>
<path d="M6780 375 c1 -26 2 -28 11 -12 8 14 8 22 0 30 -8 8 -11 3 -11 -18z"/>
<path d="M941 374 c0 -11 3 -14 6 -6 3 7 2 16 -1 19 -3 4 -6 -2 -5 -13z"/>
<path d="M2441 358 c-1 -26 6 -45 20 -59 11 -11 23 -18 27 -15 3 4 -3 12 -13
19 -9 8 -21 31 -25 53 l-8 39 -1 -37z"/>
<path d="M4742 370 c0 -14 2 -19 5 -12 2 6 2 18 0 25 -3 6 -5 1 -5 -13z"/>
<path d="M5229 373 c-13 -16 -12 -17 4 -4 16 13 21 21 13 21 -2 0 -10 -8 -17
-17z"/>
<path d="M5611 374 c0 -11 3 -14 6 -6 3 7 2 16 -1 19 -3 4 -6 -2 -5 -13z"/>
<path d="M2778 373 c7 -3 16 -2 19 1 4 3 -2 6 -13 5 -11 0 -14 -3 -6 -6z"/>
<path d="M2816 372 c17 -11 -2 -56 -21 -49 -9 4 -12 1 -9 -8 8 -21 31 -7 42
25 11 29 7 40 -12 40 -8 0 -7 -3 0 -8z"/>
<path d="M5191 364 c0 -11 3 -14 6 -6 3 7 2 16 -1 19 -3 4 -6 -2 -5 -13z"/>
<path d="M6150 370 c0 -5 11 -10 24 -10 14 0 28 5 31 10 4 6 -7 10 -24 10 -17
0 -31 -4 -31 -10z"/>
<path d="M6225 371 c-3 -5 -1 -12 5 -16 5 -3 10 1 10 9 0 18 -6 21 -15 7z"/>
<path d="M6365 363 c-3 -10 -1 -19 4 -21 6 -2 8 -9 4 -15 -4 -7 1 -5 12 3 10
8 28 14 39 13 19 -3 19 -2 -2 7 -13 5 -20 14 -17 20 3 5 -3 10 -13 10 -11 0
-23 -8 -27 -17z m30 -3 c3 -5 1 -10 -4 -10 -6 0 -11 5 -11 10 0 6 2 10 4 10 3
0 8 -4 11 -10z"/>
<path d="M6821 364 c0 -11 3 -14 6 -6 3 7 2 16 -1 19 -3 4 -6 -2 -5 -13z"/>
<path d="M2140 328 c0 -49 8 -47 14 5 3 20 1 37 -4 37 -6 0 -10 -19 -10 -42z"/>
<path d="M3475 360 c3 -5 8 -10 11 -10 2 0 4 5 4 10 0 6 -5 10 -11 10 -5 0 -7
-4 -4 -10z"/>
<path d="M5128 350 c-12 -11 -14 -17 -5 -17 16 0 40 24 29 30 -4 3 -15 -3 -24
-13z"/>
<path d="M6428 363 c7 -3 16 -2 19 1 4 3 -2 6 -13 5 -11 0 -14 -3 -6 -6z"/>
<path d="M2001 344 c0 -11 3 -14 6 -6 3 7 2 16 -1 19 -3 4 -6 -2 -5 -13z"/>
<path d="M2372 340 c0 -14 2 -19 5 -12 2 6 2 18 0 25 -3 6 -5 1 -5 -13z"/>
<path d="M3841 355 c1 -19 18 -51 18 -35 0 8 -4 22 -9 30 -5 8 -9 11 -9 5z"/>
<path d="M5057 340 c3 -11 9 -20 15 -20 5 0 4 9 -2 20 -6 11 -12 20 -14 20 -2
0 -2 -9 1 -20z"/>
<path d="M5795 350 c3 -5 8 -10 11 -10 2 0 4 5 4 10 0 6 -5 10 -11 10 -5 0 -7
-4 -4 -10z"/>
<path d="M90 326 c0 -15 4 -25 9 -22 10 7 9 31 -2 42 -4 4 -7 -5 -7 -20z"/>
<path d="M1547 337 c-3 -7 1 -21 9 -32 12 -17 14 -17 14 -2 0 9 -4 17 -10 17
-5 0 -7 7 -4 15 4 8 4 15 1 15 -3 0 -7 -6 -10 -13z"/>
<path d="M2741 334 c0 -11 3 -14 6 -6 3 7 2 16 -1 19 -3 4 -6 -2 -5 -13z"/>
<path d="M4355 340 c3 -5 8 -10 11 -10 2 0 4 5 4 10 0 6 -5 10 -11 10 -5 0 -7
-4 -4 -10z"/>
<path d="M5206 334 c-8 -21 -8 -24 5 -24 5 0 8 4 5 9 -4 5 -1 11 6 13 8 3 9 6
1 11 -6 4 -14 0 -17 -9z"/>
<path d="M6158 343 c7 -3 16 -2 19 1 4 3 -2 6 -13 5 -11 0 -14 -3 -6 -6z"/>
<path d="M140 325 c0 -8 7 -15 15 -15 23 0 18 -38 -5 -43 -17 -4 -17 -4 2 -3
30 1 35 33 9 57 -17 16 -21 17 -21 4z"/>
<path d="M956 315 c3 -6 11 -12 18 -12 8 0 12 6 10 12 -3 6 -11 12 -18 12 -8
0 -12 -6 -10 -12z"/>
<path d="M1616 314 c-4 -9 -4 -19 -1 -22 3 -3 5 0 5 6 0 21 14 13 35 -18 14
-21 28 -30 45 -29 l25 1 -25 7 c-31 9 -15 18 28 15 17 -1 51 -3 75 -4 l42 -3
-35 -7 c-26 -6 -17 -7 37 -6 39 1 71 -1 71 -4 -2 -19 3 -30 11 -26 21 13 3 41
-30 47 -29 5 -30 7 -8 8 25 1 40 18 38 44 0 7 -4 3 -9 -9 -11 -28 -49 -34
-162 -28 -74 4 -97 9 -114 25 -20 18 -22 19 -28 3z"/>
<path d="M3725 319 c-4 -6 -5 -12 -2 -15 2 -3 7 2 10 11 7 17 1 20 -8 4z"/>
<path d="M4313 314 c-17 -14 -17 -14 1 -7 13 4 17 3 12 -5 -10 -17 9 -15 23 2
17 20 -12 29 -36 10z"/>
<path d="M4648 309 c-9 -9 -14 -20 -11 -23 3 -3 -12 -3 -33 -1 -35 4 -36 4 -9
-4 l30 -9 -27 -1 c-15 0 -29 3 -33 9 -3 5 -39 9 -81 8 -54 0 -79 4 -92 15 -16
14 -17 14 -17 -9 0 -18 7 -27 23 -31 13 -3 26 -3 29 1 4 3 -3 6 -15 6 -12 0
-22 4 -22 9 0 5 16 5 38 -1 51 -13 151 -20 187 -13 20 3 34 14 42 32 15 32 13
35 -9 12z"/>
<path d="M5813 315 c-3 -9 -3 -18 -1 -21 3 -3 8 4 11 16 6 23 -1 27 -10 5z"/>
<path d="M5847 319 c7 -7 15 -10 18 -7 3 3 -2 9 -12 12 -14 6 -15 5 -6 -5z"/>
<path d="M6155 319 c-4 -6 -17 -14 -28 -18 -19 -7 -18 -9 10 -13 18 -2 30 -1
27 3 -2 4 0 10 6 14 13 8 13 25 1 25 -6 0 -13 -5 -16 -11z"/>
<path d="M6443 324 c10 -17 -23 -27 -39 -13 -12 9 -13 9 -9 -3 6 -16 74 -52
83 -43 3 3 -1 5 -9 6 -11 0 -11 2 1 7 12 6 11 11 -9 32 -13 14 -21 20 -18 14z
m12 -34 c3 -5 2 -10 -4 -10 -5 0 -13 5 -16 10 -3 6 -2 10 4 10 5 0 13 -4 16
-10z"/>
<path d="M1354 312 c5 -8 -4 -12 -26 -13 -32 -2 -32 -2 -4 -6 32 -5 55 10 35
22 -8 5 -10 4 -5 -3z"/>
<path d="M1988 301 c-22 -21 -23 -31 -4 -31 8 0 16 -6 18 -12 3 -7 5 4 6 25 1
20 0 37 -1 36 -1 0 -10 -8 -19 -18z"/>
<path d="M460 306 c0 -2 9 -6 20 -9 11 -3 20 -1 20 4 0 5 -9 9 -20 9 -11 0
-20 -2 -20 -4z"/>
<path d="M2720 300 c-13 -8 -13 -10 2 -10 9 0 20 5 23 10 8 13 -5 13 -25 0z"/>
<path d="M3736 293 c-6 -14 -5 -15 5 -6 7 7 10 15 7 18 -3 3 -9 -2 -12 -12z"/>
<path d="M5080 298 c0 -9 5 -20 10 -23 13 -8 13 5 0 25 -8 13 -10 13 -10 -2z"/>
<path d="M1034 291 c4 -5 1 -12 -4 -14 -6 -3 -5 -4 2 -3 15 3 23 26 8 26 -6 0
-9 -4 -6 -9z"/>
<path d="M1580 291 c0 -13 9 -18 50 -24 l35 -6 -38 12 c-21 7 -35 16 -31 20 4
4 2 7 -4 7 -7 0 -12 -4 -12 -9z"/>
<path d="M2415 290 c-3 -6 1 -7 9 -4 18 7 21 14 7 14 -6 0 -13 -4 -16 -10z"/>
<path d="M5630 286 c0 -8 -6 -17 -12 -19 -8 -3 -6 -6 5 -6 11 -1 17 6 17 19 0
11 -2 20 -5 20 -3 0 -5 -6 -5 -14z"/>
<path d="M5880 291 c0 -11 18 -15 59 -11 16 1 21 -2 16 -11 -6 -9 1 -11 31 -6
21 4 54 7 72 7 17 0 32 4 32 9 0 4 -43 9 -96 10 -53 0 -100 4 -105 7 -5 3 -9
0 -9 -5z"/>
<path d="M1073 283 c9 -2 15 -9 12 -14 -4 -5 1 -9 9 -9 10 0 13 6 10 15 -4 8
-16 14 -28 14 -17 -1 -17 -2 -3 -6z"/>
<path d="M1118 279 c11 -10 102 -17 102 -9 0 5 8 10 18 13 9 2 -15 4 -55 3
-39 -1 -69 -4 -65 -7z"/>
<path d="M2220 282 c0 -7 -10 -13 -22 -13 -19 -1 -20 -2 -4 -6 20 -5 44 12 33
24 -4 3 -7 1 -7 -5z"/>
<path d="M2531 274 c7 -9 15 -12 17 -6 1 5 11 8 20 7 58 -12 96 -14 82 -5 -10
7 -1 8 30 4 33 -4 41 -3 30 5 -8 6 -55 11 -104 11 -80 0 -87 -2 -75 -16z"/>
<path d="M5187 278 c-11 -5 -32 -8 -48 -6 -16 3 -29 1 -29 -4 0 -12 88 -10 95
3 10 16 2 19 -18 7z"/>
<path d="M6510 278 c0 -5 9 -6 20 -3 11 4 20 2 20 -4 0 -12 32 -14 79 -5 17 4
28 10 25 15 -7 12 -144 9 -144 -3z"/>
<path d="M4058 268 c6 -6 18 -8 28 -6 14 3 12 5 -9 10 -19 3 -25 2 -19 -4z"/>
<path d="M5575 270 c-3 -5 1 -10 10 -10 9 0 13 5 10 10 -3 6 -8 10 -10 10 -2
0 -7 -4 -10 -10z"/>
<path d="M6748 273 c7 -3 16 -2 19 1 4 3 -2 6 -13 5 -11 0 -14 -3 -6 -6z"/>
<path d="M458 263 c6 -2 18 -2 25 0 6 3 1 5 -13 5 -14 0 -19 -2 -12 -5z"/>
<path d="M2498 263 c7 -3 16 -2 19 1 4 3 -2 6 -13 5 -11 0 -14 -3 -6 -6z"/>
<path d="M3473 263 c9 -2 25 -2 35 0 9 3 1 5 -18 5 -19 0 -27 -2 -17 -5z"/>
<path d="M3778 263 c12 -2 30 -2 40 0 9 3 -1 5 -23 4 -22 0 -30 -2 -17 -4z"/>
<path d="M1950 229 c0 -5 5 -7 10 -4 6 3 10 8 10 11 0 2 -4 4 -10 4 -5 0 -10
-5 -10 -11z"/>
<path d="M1990 223 c0 -10 5 -25 10 -33 7 -11 10 -7 10 18 0 17 -4 32 -10 32
-5 0 -10 -8 -10 -17z"/>
<path d="M1925 163 c2 -66 -13 -73 -146 -73 -108 0 -117 -1 -122 -20 -5 -20 8
-29 15 -11 2 5 48 13 103 17 58 4 96 3 92 -2 -5 -5 -50 -12 -100 -15 l-92 -5
86 -2 c79 -2 158 12 144 26 -3 3 3 15 14 26 24 27 38 96 18 96 -9 0 -13 -12
-12 -37z"/>
<path d="M1540 163 c0 -11 3 -14 8 -7 9 15 44 14 38 -1 -2 -6 2 -12 10 -12 8
0 13 6 10 13 -3 8 0 11 10 7 7 -3 14 0 14 6 0 6 -19 11 -45 11 -36 0 -45 -3
-45 -17z"/>
<path d="M1621 133 c0 -12 4 -25 9 -28 6 -4 8 -11 5 -16 -4 -5 -1 -9 4 -9 13
0 14 13 2 26 -5 5 -11 18 -14 29 -4 18 -5 18 -6 -2z"/>
<path d="M1955 130 c-3 -5 -1 -10 4 -10 6 0 11 5 11 10 0 6 -2 10 -4 10 -3 0
-8 -4 -11 -10z"/>
<path d="M1980 114 c0 -8 5 -12 10 -9 6 3 10 10 10 16 0 5 -4 9 -10 9 -5 0
-10 -7 -10 -16z"/>
<path d="M1560 115 c0 -5 5 -17 10 -25 9 -13 10 -13 10 0 0 13 1 13 10 0 5 -8
10 -10 10 -5 0 6 -5 17 -10 25 -9 13 -10 13 -10 0 0 -13 -1 -13 -10 0 -5 8
-10 11 -10 5z"/>
<path d="M1610 70 c0 -6 7 -10 15 -10 8 0 15 2 15 4 0 2 -7 6 -15 10 -8 3 -15
1 -15 -4z"/>
</g>
</svg>
